<svg xmlns="http://www.w3.org/2000/svg" xmlns:xlink="http://www.w3.org/1999/xlink" viewBox="0 0 1378.54 510.77">
    <defs>
        <style>.cls-1{fill:url(#linear-gradient);}.cls-2{fill:#e20613;}.cls-3{fill:url(#linear-gradient-2);}.cls-4{fill:url(#linear-gradient-3);}.cls-5{fill:url(#linear-gradient-4);}.cls-6{fill:url(#linear-gradient-5);}.cls-7{fill:#fff;}.cls-8{fill:none;}.cls-9{fill:url(#linear-gradient-6);}.cls-10{fill:url(#linear-gradient-7);}.cls-11{fill:#818184;}.cls-12{fill:#e92531;}.cls-13{fill:#fdfcfc;}.cls-14{fill:#e72531;}.cls-15{fill:#030303;}.cls-16{fill:#020202;}.cls-17{fill:#020303;}.cls-18{fill:#030304;}.cls-19{fill:#f7f7f7;}.cls-20{fill:#f5f5f5;}.cls-21{fill:#f6f6f7;}</style>
        <linearGradient id="linear-gradient" x1="691" y1="342.9" x2="708.58" y2="342.9" gradientUnits="userSpaceOnUse">
            <stop offset="0" stop-color="#e20613" />
            <stop offset="1" stop-color="#666" />
        </linearGradient>
        <linearGradient id="linear-gradient-2" x1="701.37" y1="325.09" x2="717.23" y2="310.4" gradientUnits="userSpaceOnUse">
            <stop offset="0" stop-color="#666" />
            <stop offset="1" stop-color="#e20613" />
        </linearGradient>
        <linearGradient id="linear-gradient-3" x1="-451.73" y1="-7956.72" x2="-435.88" y2="-7971.41" gradientTransform="matrix(0.96, -0.27, -0.27, -0.96, -1035.07, -7414.09)" xlink:href="#linear-gradient-2" />
        <linearGradient id="linear-gradient-4" x1="976.32" y1="294.57" x2="976.46" y2="323.51" xlink:href="#linear-gradient-2" />
        <linearGradient id="linear-gradient-5" x1="960.55" y1="328.17" x2="969.14" y2="304.75" xlink:href="#linear-gradient-2" />
        <linearGradient id="linear-gradient-6" x1="1356.55" y1="294.57" x2="1356.69" y2="323.51" xlink:href="#linear-gradient-2" />
        <linearGradient id="linear-gradient-7" x1="1340.79" y1="328.17" x2="1349.37" y2="304.75" xlink:href="#linear-gradient-2" />
    </defs>
    <g id="Layer_2" data-name="Layer 2">
        <g id="Layer_1-2" data-name="Layer 1">
            <rect class="cls-1" x="691" y="337.15" width="17.58" height="11.49" />
            <rect class="cls-2" x="657.96" y="105.98" width="13.35" height="107.85" />
            <rect class="cls-2" x="656.43" y="207.93" width="68.04" height="11.95" />
            <path class="cls-2" d="M807.05,225.33c-31.86,0-57.77-27.33-57.77-60.92s25.91-60.92,57.77-60.92,57.76,27.33,57.76,60.92S838.9,225.33,807.05,225.33Zm0-107.88c-24.16,0-43.81,21.07-43.81,47s19.65,47,43.81,47,43.8-21.06,43.8-47S831.2,117.45,807.05,117.45Z" />
            <path class="cls-2" d="M950.81,225.33C919,225.33,893,198,893,164.41s25.92-60.92,57.77-60.92c23.4,0,44.34,14.72,53.34,37.51l-13,5.13c-6.88-17.42-22.72-28.68-40.35-28.68-24.15,0-43.81,21.07-43.81,47s19.66,47,43.81,47c15.46,0,22.8-6.57,30.64-20.93l19.39,4.35C990.55,213.62,971.38,225.33,950.81,225.33Z" />
            <polygon class="cls-2" points="1109.12 105.98 1127.61 105.98 1080.37 155.54 1130.44 219.69 1114.77 221.79 1060.85 159.91 1058.03 221.79 1046.21 221.79 1046.21 105.98 1059.05 105.98 1060.85 154.51 1109.12 105.98" />
            <polygon class="cls-2" points="1241.62 105.98 1241.62 118.82 1191.29 120.36 1190.27 153.23 1235.46 153.23 1236.23 166.58 1189.24 166.58 1189.24 206.13 1253.43 208.18 1250.87 223.85 1174.86 221.79 1173.83 105.98 1241.62 105.98" />
            <polygon class="cls-2" points="1235.33 287.84 1235.33 300.68 1185 302.22 1183.98 335.09 1229.17 335.09 1229.94 348.44 1182.95 348.44 1182.95 387.99 1247.14 390.04 1244.58 405.7 1168.57 403.65 1167.54 287.84 1235.33 287.84" />
            <path class="cls-2" d="M964.8,350.58c.71-.53,1.92-1.49,3.94-3.16,7.45-6.17,14.6-15.73,15.68-18.6s-.27-18.78-.27-18.78-11-18.25-21.31-19.89c-6.7-1.06-57.52-3.53-57.52-3.53l1,117.86h12.07l3.08-53.21,21.66-1,32,55.46,14.42-1.22Zm-6.33-19c-3.08,1.5-9,1.5-9,1.5l-28-1.5,1.79-28L960,305.56c3.66,5.18,5.41,10,4.63,13.1S961.55,330.05,958.47,331.54Z" />
            <path class="cls-2" d="M771.07,287.2l14.6,2.05s-1,58.38,0,69.9,8.88,24.92,17.44,27.79,15.23,7.31,23.8,2.87,20.63-13.77,20.46-22.27,0-78.61,0-78.61l14.43.64s-.64,50.5.63,59.83-7.4,39.1-11.15,42.29-27.86,16.52-37.7,15.89-41.34-19.43-42.08-31.92S771.07,287.2,771.07,287.2Z" />
            <polygon class="cls-2" points="720.32 297.5 709.53 303.51 672.41 305.75 672.41 335.32 691.82 335.32 691.82 350.79 672.41 350.79 672.41 390.13 707.63 390.13 729.49 379.62 733.34 392.71 706.04 405.7 656.43 404.41 656.43 287.2 706.99 287.2 720.32 297.5" />
            <path class="cls-3" d="M704.16,323.47l-4.37,8.29s9.23,1.94,12,0S724.57,321.43,725.3,316s-.24-14.34-2.92-17.37a11.83,11.83,0,0,0-6.8-3.52l-6.05,8.43s2.52,1.65,3.13,7.11,1,8.51-2.79,10.57A17.59,17.59,0,0,1,704.16,323.47Z" />
            <path class="cls-4" d="M708.26,363.93l-6.47-6.77s8.34-4.4,11.56-3.29,15.09,6.44,17.29,11.5,3.68,13.86,1.94,17.51a11.89,11.89,0,0,1-5.58,5.25l-8.12-6.46s2-2.28,1.06-7.7-1.38-8.45-5.57-9.4A17.85,17.85,0,0,0,708.26,363.93Z" />
            <path class="cls-5" d="M965.33,286c10.47,5.57,21.77,17.44,22,28.39a37.64,37.64,0,0,1-5.65,19.72l-10.3-7.59,3.71-22.63Z" />
            <path class="cls-6" d="M962.87,312.5c.26,7.18-2.27,16.25-7.5,18.38s8.27-1.58,8.27-1.58l8.55-8.82,2.93-8-2.29-9.82L960,305.56Z" />
            <path class="cls-2" d="M1076.31,407.08c-31.86,0-57.77-27.33-57.77-60.92s25.91-60.92,57.77-60.92c16.93,0,30.26,12.94,42.15,26.92l-10.64,9c-9.71-11.42-20.25-22-31.51-22-24.16,0-43.81,21.06-43.81,47s19.65,47,43.81,47c11,0,20.23-6.25,29-19.65l-3.78.12c-20.4.69-20.79.7-23.34-2.4l4.08-11.09c-1.73-2.1,2.72-.14,2.62-.15,1.68.17,10.06-.11,16.17-.31,20.68-.69,21.48-.71,23.86,3.27l0,7.13c-.61,1-1.9,2.81-4.71,6.57-1.26,1.69-2.44,3.25-2.83,3.85C1105.89,398.37,1092.44,407.08,1076.31,407.08Z" />
            <path class="cls-7" d="M652.51,226.76v-7.84h70.77v-7.84H652.51V100.9H676V204.06h-7.85V108.75h-7.84v94.49h70.77v23.52Z" />
            <path class="cls-7" d="M1112.09,226.76l-48.81-58.84V155.49l52.45,63.43h10.33l-50.89-63.12L1122,108.75h-11.29L1063.89,156v70.77h-23.52V100.9h23.52v44.86l-7.84,7.84V108.75h-7.84V218.92h7.84V152.55l51.64-51.65h32.71l-54.9,55.67,57,70.19Z" />
            <path class="cls-7" d="M1169.65,226.76V100.9h78.62v23.53h-55.09v39.4h39.4V156h-40v-7.84h47.88v23.53h-55.09V116.59h55.09v-7.84H1177.5V218.92h70.77v-7.84h-62.93v-41.2h7.84v33.36h62.93v23.52Z" />
            <path class="cls-7" d="M652.51,283.84h51.26c14,0,26.78,13,26.78,27,0,15.3-11.09,28.12-26.78,28.12H668.19v-39.4h35.58a11.72,11.72,0,0,1,11.67,11.67c0,6.12-5,12.24-11.29,12.24v-.77c4-.19,7.65-3.63,7.65-7.65a7.71,7.71,0,0,0-7.84-7.65H676v23.72h28.3c10.33,0,18.75-9.95,18.75-19.89,0-10.33-8.61-19.51-19.13-19.51H660.35V401.86h47.44a23.76,23.76,0,0,0,23.52-23.53c0-12.43-10.9-23.71-23.52-23.71H676v31.56h31.75c6.69,0,11.47-4.78,11.47-11.29,0-6.12-5.92-10.71-11.66-10.71v-.77c8.79,0,16.06,6.13,16.06,15.31,0,8.22-7.65,15.3-15.87,15.3h-39.6V346.77h39.6c17,0,31.18,14.73,31.18,31.56,0,17.6-13.59,31.37-31.18,31.37H652.51Z" />
            <path class="cls-7" d="M971.91,409.7l-31.56-55.08H924.66V409.7H901.14V283.84H952.4A27.31,27.31,0,0,1,979.75,311c0,14.92-11.67,27.93-26.77,27.93H916.82v-39.4h29.46c11.61,0,17.72,2.65,17.79,15.47v.21h-1V315c-.14-6.86-6.37-7.61-11.86-7.61H924.66v23.72h28.7c10.9,0,18.55-9.76,18.55-20.09a19.34,19.34,0,0,0-19.13-19.31H909V401.86h7.84V346.77h27.36l31.56,55.09h9.18l-31.56-55.09c17.4,0,33.47-13,33.47-31.18h.76c0,15.69-5.54,31.76-21.8,36.92l32.52,57.19Z" />
            <path class="cls-7" d="M1164.12,409.7V283.84h78.61v23.53h-55.09v39.4h39.41v-7.84h-41v-7.84h48.79v23.53H1179.8V299.53h55.09v-7.84H1172V401.86h70.77V394H1179.8V352.57h7.84v33.61h62.93V409.7Z" />
            <path class="cls-8" d="M859,360.44c-7.19,19.16-20.1,34.34-42.57,34.34h-.74c-22.47,0-35.38-15.18-42.57-34.34,2.15,23.64,17,42,42.94,42.17C842,402.43,856.84,384.08,859,360.44Z" />
            <path class="cls-8" d="M859.27,291.69h-7.82v63.12c0,1.46-.06,2.91-.17,4.34,6.58-17,7.89-38.29,8-52.93Z" />
            <path class="cls-8" d="M780.82,359.15c-.11-1.43-.17-2.88-.17-4.34V291.69h-7.81v14.53C772.93,320.86,774.24,342.12,780.82,359.15Z" />
            <path class="cls-7" d="M843.61,283.84h0v71.72c0-.25,0-.5,0-.75Z" />
            <path class="cls-7" d="M787.56,357.68c-4.38-10.54-6-26.33-6.56-41.24-.3-7.84-.32-15.43-.32-21.89v-2.86h0v63.12c0,1.46.06,2.91.17,4.34,6.07,15.69,16.61,27.79,34.86,27.79l.37,0c-17.84-.2-27.25-14.95-27.53-31.36v2.12Z" />
            <path class="cls-7" d="M867.3,307.37V283.84h-.16v31.41C867.24,312.52,867.3,309.88,867.3,307.37Z" />
            <path class="cls-7" d="M815.68,402.63l.37,0c-25.9-.18-40.79-18.53-42.94-42.17-5.41-14.41-7.58-31.06-8.14-45.19v39.56a54.43,54.43,0,0,0,.49,6.86,82.91,82.91,0,0,0,6,14C780.68,392.3,796.36,402.63,815.68,402.63Z" />
            <path class="cls-7" d="M816.05,402.61l.37,0c19.32,0,35-10.33,44.18-27a83.73,83.73,0,0,0,6-14,56.36,56.36,0,0,0,.49-6.86V315.25c-.57,14.13-2.74,30.78-8.15,45.19C856.84,384.08,842,402.43,816.05,402.61Z" />
            <path class="cls-7" d="M764.8,283.84v23.53c0,2.51.06,5.15.17,7.88V283.84Z" />
            <path class="cls-7" d="M788.52,355.56V283.84h0v71C788.49,355.06,788.52,355.31,788.52,355.56Z" />
            <path class="cls-7" d="M851.28,359.15c.11-1.43.17-2.88.17-4.34V291.69h0v2.86c0,6.46,0,14.05-.32,21.89-.58,14.91-2.17,30.7-6.56,41.24h-1v-2.12c-.28,16.41-9.69,31.16-27.53,31.36l.37,0C834.67,386.94,845.21,374.84,851.28,359.15Z" />
            <path class="cls-7" d="M866.65,361.67a83.73,83.73,0,0,1-6,14c-9.18,16.64-24.86,27-44.18,27l-.37,0-.37,0c-19.32,0-35-10.33-44.18-27a82.91,82.91,0,0,1-6-14c3.21,25.4,23.82,48.87,50.59,49C842.83,410.54,863.43,387.07,866.65,361.67Z" />
            <path class="cls-7" d="M844.54,357.68c4.39-10.54,6-26.33,6.56-41.24.3-7.84.32-15.43.32-21.89v-2.86h7.87v62.73c0,2.05-.12,4.05-.3,6,5.41-14.41,7.58-31.06,8.15-45.19V283.84H843.61v71c0,.25,0,.5,0,.75v2.12Z" />
            <path class="cls-7" d="M780.82,359.15c1.52,19.85,13.51,35.44,35.23,35.62,21.72-.18,33.72-15.77,35.23-35.62-6.07,15.69-16.61,27.79-34.86,27.79l-.37,0-.37,0C797.43,386.94,786.89,374.84,780.82,359.15Z" />
            <path class="cls-7" d="M772.81,354.42V291.69h7.87v2.86c0,6.46,0,14.05.32,21.89.58,14.91,2.18,30.7,6.56,41.24h1v-2.12c0-.25,0-.5,0-.75v-71H765v31.41c.56,14.13,2.73,30.78,8.14,45.19C772.93,358.47,772.81,356.47,772.81,354.42Z" />
            <path class="cls-8" d="M936.24,209.49c-17.86-6.83-29.46-26.39-29.46-45.85A54.15,54.15,0,0,1,910.5,144c4.33-17.93,15.14-33,34.73-35.71-20,2-35.78,16.6-42.68,34.86a95.69,95.69,0,0,0-2.37,21.29C900.18,186.14,916.35,203.43,936.24,209.49Z" />
            <path class="cls-8" d="M938.55,218.35a66.18,66.18,0,0,0,13.09,1.34,42.91,42.91,0,0,0,4.68-.29c14.84-2.12,24.85-11.72,30.73-24.2h-3.47c-7.32,8.18-16.92,15-27.85,16.35A35.84,35.84,0,0,1,950,212a38.33,38.33,0,0,1-13.77-2.55c-19.89-6.06-36.06-23.35-36.06-45.08a95.69,95.69,0,0,1,2.37-21.29,58.23,58.23,0,0,0-3.8,20.52C898.75,187.78,915.19,212.16,938.55,218.35Z" />
            <path class="cls-8" d="M910.5,144c6.31-16.16,20.38-28.34,39.51-28.34s36.26,9.33,45.12,24.49h3c-6.55-14.79-19.06-26.51-34.32-30.67A67,67,0,0,0,950,108a47,47,0,0,0-4.78.28C925.64,111,914.83,126,910.5,144Z" />
            <path class="cls-7" d="M938.55,218.35A44.69,44.69,0,0,0,950,219.88a44.12,44.12,0,0,0,6.31-.48,42.91,42.91,0,0,1-4.68.29A66.18,66.18,0,0,1,938.55,218.35Z" />
            <path class="cls-7" d="M963.79,109.45c15.26,4.16,27.77,15.88,34.32,30.67h-3a46.06,46.06,0,0,1,3.67,8h8C1001.14,127.93,984.57,113.8,963.79,109.45Z" />
            <path class="cls-7" d="M955.73,211.55c10.93-1.4,20.53-8.17,27.85-16.35h3.47a60.18,60.18,0,0,0,3.12-8h-8.72C977.37,199.36,969.41,209.36,955.73,211.55Z" />
            <path class="cls-7" d="M969.89,128c7.22,4,12.54,10.83,15.79,20.15h4.48A42,42,0,0,0,969.89,128Z" />
            <path class="cls-7" d="M951.64,100.14c-.29,0-.54,0-.82,0,28.21.41,50.57,21.82,57.08,48H1009C1002.32,122,979.37,100.14,951.64,100.14Z" />
            <path class="cls-7" d="M950.81,227.67c.28,0,.55.05.83.05,24.86,0,46.28-17.79,54.89-40.55h-8.2C992.12,209.22,976.55,227.3,950.81,227.67Z" />
            <path class="cls-7" d="M955.73,211.55a32.67,32.67,0,0,1-4.09.3,53,53,0,0,1-15.4-2.36A38.33,38.33,0,0,0,950,212,35.84,35.84,0,0,0,955.73,211.55Z" />
            <path class="cls-7" d="M969.89,128A35,35,0,0,0,955,123.77,46.34,46.34,0,0,1,969.89,128Z" />
            <path class="cls-7" d="M891.77,163.64h1c0,28.49,19.72,49.42,45.83,54.71-23.36-6.19-39.8-30.57-39.8-54.71a58.23,58.23,0,0,1,3.8-20.52c5.39-23.49,20.46-42.56,48.27-42.94-.27,0-.53,0-.81,0-34,0-59.1,30.79-59.1,63.5S916,227.72,950,227.72c.28,0,.53,0,.8-.05C917,227.17,891.77,196.27,891.77,163.64Z" />
            <path class="cls-7" d="M963.79,109.45a46.21,46.21,0,0,0-12.15-1.66,45.47,45.47,0,0,0-6.41.47A47,47,0,0,1,950,108,67,67,0,0,1,963.79,109.45Z" />
            <path class="cls-7" d="M951.64,115.82c2.67,0,6.56.38,5.47.25a57.47,57.47,0,0,0-7.1-.44c-19.13,0-33.2,12.18-39.51,28.34a85.1,85.1,0,0,0-2.28,19.86c0,22.19,22.18,40.36,43.42,40.36,11.66,0,21.42-7.84,27.92-17h-2c-5.79,9.66-15.25,16.64-27.58,16.64q-1.57,0-3.09-.15c-1.09-.11-2.15-.28-3.2-.49-17.42-3.64-29.1-22-29.1-39.53a46,46,0,0,1,4.55-20C923.31,128.44,933,115.8,951.64,115.82Z" />
            <path class="cls-7" d="M993.72,195.2c-8.34,12.69-22.06,22.5-37.4,24.2a44.12,44.12,0,0,1-6.31.48,44.69,44.69,0,0,1-11.46-1.53c-26.11-5.29-45.83-26.22-45.83-54.71h-1c0,32.63,25.22,63.53,59,64,25.74-.37,41.31-18.45,47.52-40.5h-8.16a60.18,60.18,0,0,1-3.12,8Z" />
            <path class="cls-7" d="M990.08,140.12c-7.27-14.54-22.19-24.3-38.44-24.3-18.65,0-28.33,12.62-32.47,27.86,5.66-11.66,16.37-20.2,30.84-20.2a45.2,45.2,0,0,1,5,.29A35,35,0,0,1,969.89,128a42,42,0,0,1,20.27,20.15h8.64a46.06,46.06,0,0,0-3.67-8Z" />
            <path class="cls-7" d="M951.64,204.19c-21.24,0-43.42-18.17-43.42-40.36A85.1,85.1,0,0,1,910.5,144a54.15,54.15,0,0,0-3.72,19.67c0,19.46,11.6,39,29.46,45.85a53,53,0,0,0,15.4,2.36,32.67,32.67,0,0,0,4.09-.3c13.68-2.19,21.64-12.19,25.72-24.38h-1.89C973.06,196.35,963.3,204.19,951.64,204.19Z" />
            <path class="cls-7" d="M950.82,100.18c-27.81.38-42.88,19.45-48.27,42.94,6.9-18.26,22.67-32.84,42.68-34.86a45.47,45.47,0,0,1,6.41-.47,46.21,46.21,0,0,1,12.15,1.66c20.78,4.35,37.35,18.48,43,38.7h1.12C1001.39,122,979,100.59,950.82,100.18Z" />
            <path class="cls-8" d="M858.69,164.22c0-27.93-22-56.24-51.26-56.24l-.38,0v7.85c.13,0,.25,0,.38,0,25.44,0,43.23,24.3,43.23,48.4,0,24.86-16.83,48-43.23,48l-.38,0v7.65l.38,0C837.08,219.88,858.69,192.53,858.69,164.22Z" />
            <path class="cls-8" d="M807.43,204.38c22,0,35.39-19.7,35.39-40.16,0-19.51-14.54-40.17-35.39-40.17l-.38,0v80.3Z" />
            <path class="cls-8" d="M755.4,164.2c0-27.92,22-56.23,51.27-56.23l.38,0v7.84l-.38,0c-25.45,0-43.23,24.29-43.23,48.39,0,24.87,16.83,48,43.23,48h.38v7.65l-.38,0C777,219.87,755.4,192.51,755.4,164.2Z" />
            <path class="cls-8" d="M806.67,204.37c-22,0-35.39-19.7-35.39-40.17,0-19.51,14.54-40.16,35.39-40.16l.38,0v80.29Z" />
            <path class="cls-7" d="M807.43,115.81l-.38,0-.38,0c-25.45,0-43.23,24.29-43.23,48.39,0,24.87,16.83,48,43.23,48h.76c26.4,0,43.23-23.14,43.23-48C850.66,140.1,832.87,115.81,807.43,115.81Zm0,88.56-.38,0-.38,0c-22,0-35.39-19.7-35.39-40.17,0-19.51,14.54-40.16,35.39-40.16l.38,0,.38,0c20.85,0,35.39,20.65,35.39,40.16C842.82,184.67,829.43,204.37,807.43,204.37Z" />
            <path class="cls-7" d="M807.43,100.13l-.38,0-.38,0c-34,0-59.11,31.37-59.11,64.07s25.06,63.51,59.11,63.51l.38,0,.38,0c34.05,0,59.1-30.8,59.1-63.51S841.48,100.13,807.43,100.13Zm0,119.74-.38,0-.38,0c-29.65,0-51.27-27.36-51.27-55.67,0-27.92,22-56.23,51.27-56.23l.38,0,.38,0c29.26,0,51.26,28.31,51.26,56.23C858.69,192.51,837.08,219.87,807.43,219.87Z" />
            <rect class="cls-7" x="652.51" y="198.97" width="7.84" height="24.07" />
            <path class="cls-7" d="M1126.48,354.62h-48.81v23.52h17.22c-5.85,5.14-11.55,8.59-19.19,9.08h-.3l-.38,0c-22,0-35.34-19.64-35.38-40.07,0,0,0-.07,0-.1a42.79,42.79,0,0,1,2.35-13.7c4.47-13.16,15.06-24.36,29-26.19.94-.09,1.87-.18,2.85-.18,11.47,0,22,6.69,28.3,16.26h26.4c-8.8-22.77-29.84-40.17-54.7-40.17-1.8,0-3.54.12-5.25.29a47.25,47.25,0,0,0-16.88,4.9c-21.58,10.28-35.81,34.15-35.81,58.79A66.45,66.45,0,0,0,1022.2,375c9.49,20.36,28.92,35.56,52.82,35.56l.38,0,.33,0h0c.48,0,.94-.06,1.42-.08.82-.05,1.66-.05,2.47-.13,28.19-3,49.86-27.61,53.09-55.73Zm-50.79,48.1H1075c-26.41,0-46.4-21.71-50.46-46.46a56.57,56.57,0,0,1-.8-9.2c0-21.3,12.82-42.79,31.88-51.8a45.5,45.5,0,0,1,13.83-4.08,41.73,41.73,0,0,1,4.38-.26c17.59,0,32.9,9.56,42.08,24.29h-9.76c-7.84-9.75-19.7-16.45-32.32-16.45-1.33,0-2.58.12-3.82.24a30.54,30.54,0,0,0-10.54,3c-16.84,7.41-27.7,26.28-27.7,45.08a55.63,55.63,0,0,0,.46,6.72c2.73,22.16,18.77,41.29,42.77,41.29l.38,0,.38,0c.61,0,1.18-.07,1.78-.1,15-1.42,26.7-11.4,33.77-24.67h-25.82v-7.84H1123c-5.71,20.7-22.91,37.89-44.45,40.1C1077.61,402.66,1076.64,402.68,1075.69,402.72Z" />
            <path class="cls-7" d="M1352.14,409.7l-31.56-55.08H1304.9V409.7h-23.53V283.84h51.26A27.32,27.32,0,0,1,1360,311c0,14.92-11.67,27.93-26.78,27.93h-36.15v-39.4h29.45c11.61,0,17.72,2.65,17.79,15.47v.21h-1V315c-.14-6.86-6.37-7.61-11.85-7.61H1304.9v23.72h28.69c10.9,0,18.55-9.76,18.55-20.09A19.33,19.33,0,0,0,1333,291.69h-43.81V401.86h7.85V346.77h27.35L1356,401.86h9.18l-31.56-55.09c17.41,0,33.47-13,33.47-31.18h.77c0,15.69-5.55,31.76-21.81,36.92l32.52,57.19Z" />
            <path class="cls-2" d="M1345,350.58c.71-.53,1.92-1.49,4-3.16,7.44-6.17,14.59-15.73,15.67-18.6s-.27-18.78-.27-18.78-11-18.25-21.31-19.89c-6.69-1.06-57.52-3.53-57.52-3.53l1,117.86h12.07l3.08-53.21,21.66-1,32,55.46,14.43-1.22Zm-6.32-19c-3.09,1.5-9,1.5-9,1.5l-28-1.5,1.8-28,36.72,2.05c3.65,5.18,5.4,10,4.62,13.1S1341.79,330.05,1338.71,331.54Z" />
            <path class="cls-9" d="M1345.56,286c10.47,5.57,21.77,17.44,22,28.39s-5.65,19.72-5.65,19.72l-10.3-7.59,3.71-22.63Z" />
            <path class="cls-10" d="M1343.1,312.5c.27,7.18-2.27,16.25-7.5,18.38s8.27-1.58,8.27-1.58l8.55-8.82,2.93-8-2.29-9.82-12.81,2.88Z" />
            <path class="cls-7" d="M1352.14,409.7l-31.56-55.08H1304.9V409.7h-23.53V283.84h51.26A27.32,27.32,0,0,1,1360,311c0,14.92-11.67,27.93-26.78,27.93h-36.15v-39.4h29.45c11.61,0,17.72,2.65,17.79,15.47v.21h-1V315c-.14-6.86-6.37-7.61-11.85-7.61H1304.9v23.72h28.69c10.9,0,18.55-9.76,18.55-20.09A19.33,19.33,0,0,0,1333,291.69h-43.81V401.86h7.85V346.77h27.35L1356,401.86h9.18l-31.56-55.09c17.41,0,33.47-13,33.47-31.18h.77c0,15.69-5.55,31.76-21.81,36.92l32.52,57.19Z" />
            <path class="cls-11" d="M255.27,510.77c140,.2,253.52-112,255.51-251.17A255,255,0,0,0,258.13,0C113.45-1.32.05,115.47,0,255.32,0,396.34,114.5,511,255.27,510.77Z" />
            <path class="cls-12" d="M255.27,510.77C114.5,511,0,396.34,0,255.32.05,115.47,113.45-1.32,258.13,0A255,255,0,0,1,510.78,259.6C508.79,398.73,395.24,511,255.27,510.77Zm.12-15.81c132.05.06,239.26-107.08,239.42-239.29C495,123.27,387.91,16.09,255.44,16,123.16,16,15.74,123.4,15.9,255.58S123.26,494.89,255.39,495Z" />
            <path class="cls-13" d="M255.39,495C123.26,494.89,16.05,387.73,15.9,255.58S123.16,16,255.44,16C387.91,16.09,495,123.27,494.81,255.67,494.65,387.88,387.44,495,255.39,495ZM85.62,381.51h.09l23.07-30L101.42,343,70,387.73l6.73,8.06,30.45-13.71.75,1L89.4,410.71l7,8.08L145.75,395l-7-8.12-33,17.5-.59-.66c6.79-10,13.57-20,20.43-30.14l-6-7c-10.3,4.87-20.47,9.72-30.69,14.47A10.79,10.79,0,0,1,85.62,381.51Zm331-126.24c-.17-89-72.48-161.13-161.29-161a161.16,161.16,0,1,0,3.35,322.28C345.37,414.93,416.37,344.37,416.58,255.27Zm-256.44-159a11.14,11.14,0,0,1-1.91-.24c-12.37-4.64-24.74-9.31-37.12-13.92-1-.36-2.37-.86-3.07-.45-2.69,1.6-5.18,3.54-7.87,5.44,10.3,14.58,20.33,28.81,30.54,43.27l8.18-5.74-21.32-30.4c1.48.4,2.06.51,2.61.72,10,3.79,20,7.32,29.85,11.47,6.66,2.82,12.72,4.55,17.69-2.73L147.38,60.79l-8.07,5.91ZM206.4,38.25c2.62,17.84,5.15,35.12,7.75,52.88,8.5-1.52,16.41-2.67,24.19-4.42,5.44-1.22,10.09-4.38,10.86-10.27.48-3.69.08-8.13-1.65-11.28s-5.54-4.79-8.43-7.11a21.93,21.93,0,0,0,2.78-3.25c5.27-8.7-1.43-19.41-12.49-19.18C221.86,35.77,214.33,37.29,206.4,38.25Zm80,443.51c-1.13-7-2.21-13.62-3.28-20.2,7-1.68,7-1.68,10.84,3.57,2.89,4,5.72,8,8.72,11.86a4.09,4.09,0,0,0,2.87,1.63c3.11-.3,6.19-1,9.89-1.68-5.33-6.8-10.38-13.23-15.46-19.72.48-.52.77-.89,1.12-1.21,5.35-4.91,6.44-10.94,4.22-17.56-2.13-6.37-7-10.32-13.53-10.26-7.85.07-15.68,1.61-23.89,2.56,3,18.08,5.88,35.31,8.79,52.74ZM317,421.38c5.67,10.87,10.76,21.78,16.89,32.07,5.78,9.72,17,11.79,27.63,6.18,10.4-5.51,14.79-15.84,10.16-26.1-4.87-10.83-10.59-21.27-16.08-32.15l-9,4.86c.6,1.26,1,2.24,1.53,3.2,4.41,8.63,8.9,17.21,13.21,25.89,2,4.11,3.39,8.67-.33,12.39-5.52,5.49-13.72,8.59-19.55-1.41-.68-1.17-1.25-2.41-1.87-3.61l-13.43-26.25ZM281.92,44l23.83,3.51c.48-3.09.91-5.92,1.38-8.94l-34.08-5.12c-2.63,17.57-5.23,34.91-7.85,52.44L301,91.23c.48-3.22.89-6.07,1.34-9.11L276.74,78.2c.66-4.48,1.29-8.69,2-13.17l17.66,2.46c.44-3.33.8-6.07,1.18-8.93L280.1,55.84C280.72,51.83,281.3,48,281.92,44ZM186.51,416.8,156.45,400c-8.73,15.63-17.25,30.9-25.85,46.29L162.22,464c1.44-2.57,2.87-5.12,4.51-8l-22.65-12.83,6.58-11.62,15.39,8.61c1.58-2.73,3.06-5.29,4.58-7.94l-15.5-8.73L161.06,413l21.05,11.79ZM350.23,102.45,326.77,91.3l5.66-12.07,16.11,7.51c1.32-2.83,2.53-5.45,3.82-8.24l-16-7.71c1.85-3.78,3.55-7.24,5.26-10.75L363.31,70.2l4-8.14L336.09,47.33c-7.53,16-15,31.92-22.62,48l32.79,15.46Zm45.91,269.34c-2.64.33-5.24.3-7.61,1-6.7,2.09-11.48,6.67-14.62,12.81a14.17,14.17,0,0,0,2.52,16.76,14.88,14.88,0,0,0,17.67,3.16c3.77-1.78,7.29-4.05,11-5.92,3-1.53,5.76-.77,7.88,1.87s2.2,5.82.05,8.15a26.28,26.28,0,0,1-8.11,6c-2.44,1.12-5.48.91-8.28,1.29-.21,3-.41,6.05-.62,9.05,9,1.17,17.17-1.78,22.87-8.15,6.2-6.93,7.16-16.6,2.25-22.67-5.82-7.17-13.85-8.35-22.9-3.35-2.37,1.31-4.63,2.81-7.07,3.95-2.87,1.34-5.76,1.59-8-1.35a5.87,5.87,0,0,1,1.46-8.21c3.3-2.45,7.2-4.1,11.45-6.44ZM418,101.65,392.28,78.88l-35.12,39.64,7.59,6.87,14.24-16,13.54,11.86,6-6.85c-4.53-4-8.84-7.89-13.37-11.92L394,92.55l18,15.89Zm2.43,219.72L397.87,361.5l7.95,4.31,8.8-15.42,38.21,21.47L457.9,363l-38.25-21.56c2.92-5.23,5.76-10.34,8.68-15.58ZM256.79,432.07l-45.57-6c-.43,3.16-.81,6-1.21,8.93l17.66,2.51c-1.94,14.7-3.83,29-5.74,43.48l10.18,1.23c1.94-14.61,3.85-28.93,5.78-43.46l17.65,2.31C256,438.08,256.34,435.33,256.79,432.07ZM130.18,143.17c-13.49-11.32-26.86-22.52-40.5-33.95L82.92,117l40.74,34.17Z" />
            <path class="cls-14" d="M416.58,255.27c-.21,89.1-71.21,159.66-157.94,161.26a161.16,161.16,0,1,1-3.35-322.28C344.1,94.14,416.41,166.32,416.58,255.27ZM255.47,400.39c80.82-.07,145.29-64.9,144.87-146.51-.4-78.46-64.51-144.21-146.45-143.43a145,145,0,0,0,1.58,289.94Z" />
            <path class="cls-15" d="M105.72,404.42l33-17.5,7,8.12L96.4,418.79l-7-8.08,18.52-27.63-.75-1L76.72,395.79,70,387.73,101.42,343l7.36,8.56q-11.53,15-23.06,30c0,.32,0,.63.06.94l.45-.38-.61-.58a10.79,10.79,0,0,0,3.27-.39c10.22-4.75,20.39-9.6,30.69-14.47l6,7c-6.86,10.11-13.64,20.12-20.43,30.14l-.24,1.05Z" />
            <path class="cls-16" d="M160.14,96.32,139.31,66.7l8.07-5.91,30.34,42.95c-5,7.28-11,5.55-17.69,2.73-9.82-4.15-19.89-7.68-29.85-11.47-.55-.21-1.13-.32-2.61-.72l21.32,30.4-8.18,5.74C130.5,116,120.47,101.73,110.17,87.15c2.69-1.9,5.18-3.84,7.87-5.44.7-.41,2.1.09,3.07.45,12.38,4.61,24.75,9.28,37.12,13.92A11.14,11.14,0,0,0,160.14,96.32Z" />
            <path class="cls-15" d="M206.4,38.25c7.93-1,15.46-2.48,23-2.63,11.06-.23,17.76,10.48,12.49,19.18a21.93,21.93,0,0,1-2.78,3.25c2.89,2.32,6.78,4.1,8.43,7.11s2.13,7.59,1.65,11.28c-.77,5.89-5.42,9-10.86,10.27-7.78,1.75-15.69,2.9-24.19,4.42C211.55,73.37,209,56.09,206.4,38.25Zm16.26,42.49c2.69-.36,5.11-.63,7.52-1a27.16,27.16,0,0,0,4.29-1,6.72,6.72,0,0,0,5-7.59,6.55,6.55,0,0,0-6.76-6c-4,.06-8,.56-12.27.89C221.2,71.24,221.92,75.9,222.66,80.74Zm-3.4-22.55c4.28-1.08,8.25-1.77,12-3.14,2.58-1,3.11-3.48,2.56-6.2s-2.3-4.3-4.78-4.31c-3.82,0-7.65.59-11.56.94C218.08,49.88,218.61,53.6,219.26,58.19Z" />
            <path class="cls-15" d="M286.36,481.76l-9.71,1.73c-2.91-17.43-5.78-34.66-8.79-52.74,8.21-.95,16-2.49,23.89-2.56,6.5-.06,11.4,3.89,13.53,10.26,2.22,6.62,1.13,12.65-4.22,17.56-.35.32-.64.69-1.12,1.21,5.08,6.49,10.13,12.92,15.46,19.72-3.7.67-6.78,1.38-9.89,1.68a4.09,4.09,0,0,1-2.87-1.63c-3-3.88-5.83-7.89-8.72-11.86-3.84-5.25-3.84-5.25-10.84-3.57C284.15,468.14,285.23,474.76,286.36,481.76Zm-7.21-43.53,2.41,14.62c1.9-.28,3.58-.5,5.26-.78,1.08-.18,2.16-.41,3.23-.67,4.26-1,6.37-4.11,5.76-8.42a7.12,7.12,0,0,0-8.14-6.22C284.9,437.06,282.17,437.7,279.15,438.23Z" />
            <path class="cls-15" d="M317,421.38l9.14-4.93,13.43,26.25c.62,1.2,1.19,2.44,1.87,3.61,5.83,10,14,6.9,19.55,1.41,3.72-3.72,2.37-8.28.33-12.39-4.31-8.68-8.8-17.26-13.21-25.89-.49-1-.93-1.94-1.53-3.2l9-4.86c5.49,10.88,11.21,21.32,16.08,32.15,4.63,10.26.24,20.59-10.16,26.1-10.62,5.61-21.85,3.54-27.63-6.18C327.8,443.16,322.71,432.25,317,421.38Z" />
            <path class="cls-15" d="M281.92,44c-.62,4-1.2,7.86-1.82,11.87l17.44,2.72c-.38,2.86-.74,5.6-1.18,8.93L278.7,65c-.67,4.48-1.3,8.69-2,13.17l25.61,3.92c-.45,3-.86,5.89-1.34,9.11L265.2,85.86c2.62-17.53,5.22-34.87,7.85-52.44l34.08,5.12c-.47,3-.9,5.85-1.38,8.94Z" />
            <path class="cls-17" d="M186.51,416.8l-4.4,8L161.06,413l-5.93,10.48,15.5,8.73c-1.52,2.65-3,5.21-4.58,7.94l-15.39-8.61-6.58,11.62L166.73,456c-1.64,2.9-3.07,5.45-4.51,8L130.6,446.29c8.6-15.39,17.12-30.66,25.85-46.29Z" />
            <path class="cls-16" d="M350.23,102.45l-4,8.33L313.47,95.32c7.58-16.07,15.09-32,22.62-48l31.18,14.73-4,8.14L341.59,60c-1.71,3.51-3.41,7-5.26,10.75l16,7.71c-1.29,2.79-2.5,5.41-3.82,8.24l-16.11-7.51L326.77,91.3Z" />
            <path class="cls-18" d="M396.14,371.79v8c-4.25,2.34-8.15,4-11.45,6.44a5.87,5.87,0,0,0-1.46,8.21c2.2,2.94,5.09,2.69,8,1.35,2.44-1.14,4.7-2.64,7.07-3.95,9.05-5,17.08-3.82,22.9,3.35,4.91,6.07,3.95,15.74-2.25,22.67-5.7,6.37-13.86,9.32-22.87,8.15.21-3,.41-6,.62-9.05,2.8-.38,5.84-.17,8.28-1.29a26.28,26.28,0,0,0,8.11-6c2.15-2.33,2.11-5.46-.05-8.15s-4.84-3.4-7.88-1.87c-3.73,1.87-7.25,4.14-11,5.92a14.88,14.88,0,0,1-17.67-3.16,14.17,14.17,0,0,1-2.52-16.76c3.14-6.14,7.92-10.72,14.62-12.81C390.9,372.09,393.5,372.12,396.14,371.79Z" />
            <path class="cls-15" d="M418,101.65l-6,6.79L394,92.55l-8.81,9.94c4.53,4,8.84,7.87,13.37,11.92l-6,6.85L379,109.4l-14.24,16-7.59-6.87,35.12-39.64Z" />
            <path class="cls-15" d="M420.44,321.37l7.89,4.44c-2.92,5.24-5.76,10.35-8.68,15.58L457.9,363l-5.07,8.91-38.21-21.47-8.8,15.42-7.95-4.31Z" />
            <path class="cls-15" d="M256.79,432.07c-.45,3.26-.83,6-1.25,9l-17.65-2.31c-1.93,14.53-3.84,28.85-5.78,43.46L221.93,481c1.91-14.45,3.8-28.78,5.74-43.48L210,435c.4-2.92.78-5.77,1.21-8.93Z" />
            <path class="cls-16" d="M130.18,143.17l-6.52,8L82.92,117l6.76-7.73C103.32,120.65,116.69,131.85,130.18,143.17Z" />
            <path d="M255.47,400.39a145,145,0,0,1-1.58-289.94c81.94-.78,146.05,65,146.45,143.43C400.76,335.49,336.29,400.32,255.47,400.39ZM203.24,259.3h2.31c5.63,0,5.63,0,5.63-5.47V193.42c0-6.8.09-13.59-.09-20.39,0-1.05-1.22-3-1.93-3-6.87-.23-13.75-.14-20.6-.14V274.39h51.6v6.8H188.52v7.95h52.09v51.8c17.6,0,34.9,0,52.19,0,16.87,0,29.59-13.25,29.58-30,0-16.38-13.79-29.77-30.52-29.86-8.65,0-17.3,0-25.94,0-.94,0-1.87-.16-2.65-.23v-6.62c8.48,0,16.74,0,25,0,15.11-.05,26-11,26.17-26.29.13-13.67-11.89-25.93-25.86-26.06-14.95-.15-29.9,0-44.85-.09-2.57,0-3.41.7-3.39,3.35.13,12.47.06,25,.06,37.43v3.51H196.65v-88h6.59Z" />
            <path class="cls-13" d="M85.62,381.51l.61.58-.45.38c0-.31,0-.62-.06-.94Z" />
            <path class="cls-13" d="M105.72,404.42l-.83.39.24-1.05Z" />
            <path class="cls-19" d="M222.66,80.74c-.74-4.84-1.46-9.5-2.24-14.65,4.27-.33,8.27-.83,12.27-.89a6.55,6.55,0,0,1,6.76,6,6.72,6.72,0,0,1-5,7.59,27.16,27.16,0,0,1-4.29,1C227.77,80.11,225.35,80.38,222.66,80.74Z" />
            <path class="cls-20" d="M219.26,58.19c-.65-4.59-1.18-8.31-1.81-12.71,3.91-.35,7.74-.95,11.56-.94,2.48,0,4.23,1.61,4.78,4.31s0,5.24-2.56,6.2C227.51,56.42,223.54,57.11,219.26,58.19Z" />
            <path class="cls-19" d="M279.15,438.23c3-.53,5.75-1.17,8.52-1.47a7.12,7.12,0,0,1,8.14,6.22c.61,4.31-1.5,7.4-5.76,8.42-1.07.26-2.15.49-3.23.67-1.68.28-3.36.5-5.26.78Z" />
            <path class="cls-21" d="M203.24,259.3V178.05h-6.59v88H240.4v-3.51c0-12.48.07-25-.06-37.43,0-2.65.82-3.37,3.39-3.35,15,.1,29.9-.06,44.85.09,14,.13,26,12.39,25.86,26.06-.15,15.26-11.06,26.24-26.17,26.29-8.26,0-16.52,0-25,0v6.62c.78.07,1.71.22,2.65.23,8.64,0,17.29,0,25.94,0,16.73.09,30.5,13.48,30.52,29.86,0,16.72-12.71,29.93-29.58,30-17.29.05-34.59,0-52.19,0v-51.8H188.52v-7.95h51.64v-6.8h-51.6V169.91c6.85,0,13.73-.09,20.6.14.71,0,1.91,1.93,1.93,3,.18,6.8.09,13.59.09,20.39v60.41c0,5.51,0,5.51-5.63,5.47Zm60.05,58.87c10.26,0,20.14.1,30,0a9.88,9.88,0,0,0,10-9.11c.47-4.62-2.68-9-7.62-10.46-1-.31-2.06-.57-3.82-1.06a13.8,13.8,0,0,1,15.87,11.31,15,15,0,0,1-14.88,17.27c-11.74.16-23.48.05-35.22,0a19.77,19.77,0,0,1-2.26-.23V236.61h31.31c1,0,2-.05,3,0a11.53,11.53,0,0,1,10.61,10.9c.19,5.78-4,11.09-9.51,12a11.74,11.74,0,0,1-2.55-.4l2.66-1c3.94-1.41,5.83-4.2,5.28-7.8s-3.28-5.68-7.45-5.77c-2-.05-3.95,0-5.93,0H263.33V266a3.38,3.38,0,0,0,.85.27c8.15,0,16.31.09,24.46,0a18.27,18.27,0,0,0,.34-36.54c-7-.15-14.08,0-21.13,0H248.7V333c14.83,0,29.41.08,44,0,11.53-.08,21.13-9,21.84-20,.74-11.53-7.55-22.53-19.06-23.48-10.64-.87-21.4-.19-32.18-.19Z" />
            <path class="cls-16" d="M263.29,318.17V289.23c10.78,0,21.54-.68,32.18.19,11.51.95,19.8,11.95,19.06,23.48-.71,11-10.31,20-21.84,20-14.58.1-29.16,0-44,0V229.75h19.15c7,0,14.09-.12,21.13,0a18.27,18.27,0,0,1-.34,36.54c-8.15.05-16.31,0-24.46,0a3.38,3.38,0,0,1-.85-.27V244.58h19.39c2,0,3.95,0,5.93,0,4.17.09,6.91,2.24,7.45,5.77s-1.34,6.39-5.28,7.8l-2.66,1a11.74,11.74,0,0,0,2.55.4c5.5-.87,9.7-6.18,9.51-12a11.53,11.53,0,0,0-10.61-10.9c-1-.09-2,0-3,0H255.34v89.28a19.77,19.77,0,0,0,2.26.23c11.74,0,23.48.12,35.22,0a15,15,0,0,0,14.88-17.27,13.8,13.8,0,0,0-15.87-11.31c1.76.49,2.8.75,3.82,1.06,4.94,1.49,8.09,5.84,7.62,10.46a9.88,9.88,0,0,1-10,9.11C283.43,318.27,273.55,318.17,263.29,318.17Z" />
        </g>
    </g>
</svg>